<svg width="32" height="32" viewBox="0 0 32 32" fill="none" xmlns="http://www.w3.org/2000/svg">
<rect width="32" height="32" rx="16" fill="white"/>
<path d="M16.6228 18.0844C16.6228 18.1217 16.6478 18.1545 16.684 18.1644L18.7248 18.7247L20.5149 25.2453C20.5262 25.2868 20.504 25.3301 20.4637 25.3451L18.7185 25.9947C18.6725 26.0119 18.6217 25.9856 18.6091 25.9382L16.6371 18.4983C16.6274 18.4619 16.5944 18.4366 16.5567 18.4365H15.4438C15.4061 18.4366 15.373 18.4619 15.3634 18.4983L13.3914 25.9382C13.3788 25.9856 13.328 26.0119 13.282 25.9947L11.5368 25.3451C11.4965 25.3301 11.4743 25.2868 11.4856 25.2453L13.2756 18.7245L15.3161 18.1644C15.3521 18.1545 15.3772 18.1217 15.3772 18.0844V16.623H16.6228V18.0844ZM6.655 11.5366C6.67003 11.4963 6.7134 11.4741 6.75497 11.4855L13.2756 13.2754L13.8358 15.316C13.8457 15.3521 13.8786 15.3771 13.9161 15.3771H15.3772V16.623H13.9161C13.8786 16.623 13.8457 16.648 13.8358 16.6841L13.2756 18.7245L6.75497 20.5145C6.71341 20.5259 6.67004 20.5038 6.655 20.4634L6.00524 18.718C5.98814 18.6721 6.01442 18.6215 6.06187 18.6089L13.5017 16.6368C13.5382 16.6272 13.5636 16.5942 13.5636 16.5566V15.4435C13.5636 15.4058 13.5382 15.3729 13.5017 15.3632L6.06187 13.3912C6.01443 13.3786 5.98816 13.328 6.00524 13.282L6.655 11.5366ZM25.2449 11.4855C25.2865 11.4741 25.33 11.4963 25.345 11.5366L25.9948 13.282C26.0118 13.328 25.9856 13.3786 25.9381 13.3912L18.4983 15.3632C18.4618 15.3729 18.4363 15.4058 18.4363 15.4435V16.5566C18.4363 16.5942 18.4618 16.6272 18.4983 16.6368L25.9381 18.6089C25.9856 18.6215 26.0119 18.6721 25.9948 18.718L25.345 20.4634C25.33 20.5038 25.2865 20.5259 25.2449 20.5145L18.7248 18.7247L18.1647 16.6841C18.1548 16.648 18.1219 16.623 18.0844 16.623H16.6228V15.3771H18.0844C18.1219 15.3771 18.1548 15.3521 18.1647 15.316L18.7249 13.2752L25.2449 11.4855ZM18.6091 6.06188C18.6217 6.01444 18.6725 5.98812 18.7185 6.00525L20.4637 6.65495C20.504 6.66996 20.5262 6.71319 20.5149 6.75464L18.7249 13.2752L16.684 13.8356C16.6479 13.8455 16.6228 13.8783 16.6228 13.9156V15.3771H15.3772V13.9156C15.3772 13.8783 15.3521 13.8455 15.3161 13.8356L13.2756 13.2754L11.4856 6.75464C11.4743 6.71319 11.4965 6.66996 11.5368 6.65495L13.282 6.00525C13.328 5.98812 13.3788 6.01445 13.3914 6.06188L15.3634 13.5017C15.3731 13.5381 15.4061 13.5635 15.4438 13.5635H16.5567C16.5944 13.5635 16.6274 13.5381 16.6371 13.5017L18.6091 6.06188Z" fill="#032134"/>
</svg>
