<svg width="70" height="20" viewBox="0 0 70 20" fill="none" xmlns="http://www.w3.org/2000/svg">
<g clip-path="url(#clip0_2340_3812)">
<path d="M35.8969 19.0393H38.5583V11.6786C38.5583 9.87506 39.8271 8.51077 41.5187 8.51077C43.2104 8.51077 44.6031 9.87506 44.6031 11.6786V19.0358H47.4651V11.4858C47.4651 8.29292 44.8291 5.8822 41.9416 5.8822C40.8479 5.8822 39.5463 6.21792 38.5583 7.55363V6.17506H35.8969V19.0393Z" fill="white"/>
<path d="M62.8833 5.87854C59.026 5.87854 56.0692 8.87497 56.0692 12.6535C56.0692 16.5285 59.0296 19.3285 62.8833 19.3285C66.839 19.3285 69.7994 16.525 69.7994 12.6535C69.7994 8.87854 66.839 5.87854 62.8833 5.87854ZM62.8833 16.625C60.7177 16.625 58.9275 14.8714 58.9275 12.6535C58.9275 10.3143 60.7177 8.58568 62.8833 8.58568C65.1729 8.58568 66.9374 10.3143 66.9374 12.6535C66.9374 14.8714 65.1729 16.625 62.8833 16.625Z" fill="white"/>
<path d="M55.5698 19.0393V16.3357C53.5791 17.3107 51.7125 16.5322 51.7125 14.3857V8.77861H55.2708V6.17146H51.7125V2.85718H48.9526V13.9215C48.9562 18.4536 52.1135 20.0143 55.5698 19.0393Z" fill="white"/>
<path d="M27.4895 5.87854C23.6322 5.87854 20.6755 8.87497 20.6755 12.6535C20.6755 16.5285 23.6359 19.3285 27.4895 19.3285C31.4453 19.3285 34.4057 16.525 34.4057 12.6535C34.402 8.87854 31.4416 5.87854 27.4895 5.87854ZM27.4895 16.625C25.302 16.625 23.5338 14.8714 23.5338 12.6535C23.5338 10.3143 25.2984 8.58568 27.4895 8.58568C29.7536 8.58568 31.5437 10.3143 31.5437 12.6535C31.5437 14.8714 29.75 16.625 27.4895 16.625Z" fill="white"/>
<path d="M9.77811 0.25C4.35311 0.25 0.2005 4.32143 0.2005 9.85357C0.2005 15.1643 4.35311 19.3321 9.77811 19.3321C15.3234 19.3321 19.4797 15.1643 19.4797 9.85357C19.4797 4.32143 15.3234 0.25 9.77811 0.25ZM9.77811 16.5286C6.0229 16.5286 3.25935 13.725 3.25935 9.85357C3.25935 5.88214 6.01925 2.95714 9.77811 2.95714C13.6354 2.95714 16.4208 5.88214 16.4208 9.85357C16.4172 13.725 13.6318 16.5286 9.77811 16.5286Z" fill="white"/>
<path d="M19.024 19.75C13.6062 19.1714 10.1354 16.4536 8.42188 11.4429L11.1344 10.5536C12.4943 14.5286 15.0245 16.5036 19.3375 16.9643L19.024 19.75Z" fill="white"/>
</g>
<defs>
<clipPath id="clip0_2340_3812">
<rect width="70" height="20" fill="white"/>
</clipPath>
</defs>
</svg>
