<svg width="109" height="16" viewBox="0 0 109 16" fill="none" xmlns="http://www.w3.org/2000/svg">
<g clip-path="url(#clip0_2340_3787)">
<path d="M12.1237 0.247777C13.6685 -0.0500989 15.3224 -0.158993 16.8199 0.403916C17.5495 0.706401 18.2638 1.12988 18.723 1.77806C19.4172 2.68206 19.5228 3.89027 19.3841 4.97749C19.0323 7.03957 17.8577 8.87234 16.4493 10.409C15.7403 11.1217 15.0432 11.8597 14.2121 12.4405C14.208 11.3619 14.1554 10.2805 14.221 9.20363C14.5922 8.67644 15.1016 8.25815 15.4782 7.73384C16.3064 6.64201 17.0513 5.4073 17.1771 4.02451C17.2621 3.44029 17.111 2.83532 16.7893 2.33924C16.3212 1.66686 15.5084 1.31483 14.7032 1.214C13.1779 0.970859 11.6503 1.3903 10.236 1.92095C7.80878 2.8912 5.60881 4.39153 3.83149 6.27327C2.82684 7.34205 1.96621 8.58598 1.56364 9.99527C1.43496 10.538 1.34819 11.1073 1.45975 11.661C1.56305 12.149 1.9485 12.6157 2.47798 12.6738C3.36399 12.8502 4.18861 12.3846 4.88277 11.9081C6.2469 10.8653 7.36548 9.55739 8.45336 8.25123C9.78148 6.60456 11.05 4.90892 12.1839 3.12801C12.1969 6.69963 12.1969 10.2707 12.1839 13.8423C9.95798 15.0753 7.47232 16.0502 4.87156 15.9954C3.43423 16.0052 1.90541 15.5616 0.933817 14.4761C0.269165 13.7807 0.033054 12.8058 0.00354014 11.8805C-0.0206612 10.5063 0.511769 9.18922 1.17996 8.00348C2.40302 5.97079 4.14788 4.26708 6.11645 2.91713C7.92388 1.6732 9.95679 0.711586 12.1237 0.247777Z" fill="white" stroke="white" stroke-width="0.09"/>
<path d="M42.4876 4.01936C43.6593 2.55015 45.7069 1.98206 47.5474 2.22174C48.5326 2.35138 49.503 2.72646 50.2226 3.41209C51.1162 4.25847 51.5796 5.45977 51.7 6.65242C50.7302 6.65818 49.761 6.65876 48.7923 6.65472C48.6152 6.06819 48.4228 5.43614 47.8833 5.06394C46.9642 4.5212 45.6473 4.68944 44.936 5.48857C44.537 5.90571 44.3505 6.47093 44.2767 7.02692C44.2194 7.83009 44.1598 8.67359 44.4556 9.44277C44.6893 10.0356 45.06 10.6262 45.6609 10.92C46.6284 11.4138 47.8591 11.366 48.7858 10.8014C49.6122 10.2961 50.2385 9.53553 50.7355 8.72775C52.0943 6.61612 53.4408 4.497 54.8102 2.39228C56.1867 2.39171 57.5632 2.39055 58.9404 2.39401C58.9421 6.13791 58.9421 9.8818 58.9404 13.6263C57.977 13.6286 57.0149 13.6297 56.0521 13.6263C56.0492 12.9406 56.0504 12.2556 56.0297 11.5711C54.7217 11.5556 53.4112 11.5175 52.1044 11.5705C51.6003 11.9341 51.2231 12.4428 50.6954 12.781C49.8224 13.3716 48.7829 13.7219 47.7239 13.7939C46.1538 13.9633 44.4762 13.6418 43.2177 12.6716C42.3666 12.0332 41.807 11.0866 41.4924 10.0973C40.9292 8.06862 41.1146 5.7104 42.4876 4.01879M53.4449 9.30391C54.3126 9.3091 55.1797 9.30737 56.048 9.30507C56.0445 7.95282 56.0675 6.59999 56.0291 5.24831C55.1384 6.58155 54.3085 7.95339 53.4449 9.30391Z" fill="white"/>
<path d="M42.4876 4.01936C43.6593 2.55015 45.7069 1.98206 47.5474 2.22174C48.5326 2.35138 49.503 2.72646 50.2226 3.41209C51.1162 4.25847 51.5796 5.45977 51.7 6.65242C50.7302 6.65818 49.761 6.65876 48.7923 6.65472C48.6152 6.06819 48.4228 5.43614 47.8833 5.06394C46.9642 4.5212 45.6473 4.68944 44.936 5.48857C44.537 5.90571 44.3505 6.47093 44.2767 7.02692C44.2194 7.83009 44.1598 8.67359 44.4556 9.44277C44.6893 10.0356 45.06 10.6262 45.6609 10.92C46.6284 11.4138 47.8591 11.366 48.7858 10.8014C49.6122 10.2961 50.2385 9.53553 50.7355 8.72775C52.0943 6.61612 53.4408 4.497 54.8102 2.39228C56.1867 2.39171 57.5632 2.39055 58.9404 2.39401C58.9421 6.13791 58.9421 9.8818 58.9404 13.6263C57.977 13.6286 57.0149 13.6297 56.0521 13.6263C56.0492 12.9406 56.0504 12.2556 56.0297 11.5711C54.7217 11.5556 53.4112 11.5175 52.1044 11.5705C51.6003 11.9341 51.2231 12.4428 50.6954 12.781C49.8224 13.3716 48.7829 13.7219 47.7239 13.7939C46.1538 13.9633 44.4762 13.6418 43.2177 12.6716C42.3666 12.0332 41.807 11.0866 41.4924 10.0973C40.9292 8.06862 41.1146 5.7104 42.4876 4.01879M53.4449 9.30391C54.3126 9.3091 55.1797 9.30737 56.048 9.30507C56.0445 7.95282 56.0675 6.59999 56.0291 5.24831C55.1384 6.58155 54.3085 7.95339 53.4449 9.30391Z" stroke="white" stroke-width="0.09"/>
<path d="M92.4345 2.18651C94.1374 2.0707 95.9348 2.60826 97.1213 3.84355C98.3343 5.10995 98.7398 6.92428 98.6082 8.61416C98.5037 10.3127 97.6608 12.0389 96.1485 12.9555C94.3658 14.0376 92.013 14.1153 90.1141 13.2753C89.1082 12.8005 88.2571 12.0072 87.7477 11.0352C87.145 9.97045 87.0104 8.71614 87.0446 7.51945C87.1261 6.06522 87.7146 4.61272 88.8048 3.59753C89.7918 2.7183 91.1093 2.25219 92.4345 2.18651ZM92.4362 4.78384C91.6453 4.84491 90.9186 5.30239 90.5302 5.97419C90.0019 6.89317 89.9653 8.00919 90.1595 9.02496C90.2841 9.71348 90.6264 10.398 91.2338 10.799C92.0396 11.3717 93.1457 11.3659 94.0459 11.0202C94.9774 10.6336 95.4821 9.65125 95.5706 8.70692C95.6674 7.61856 95.596 6.3775 94.8139 5.51787C94.2171 4.88986 93.2856 4.6617 92.4362 4.78384Z" fill="white" stroke="white" stroke-width="0.09"/>
<path d="M22.6997 2.39339C24.1754 2.39512 25.6505 2.38417 27.1268 2.39339C28.8008 2.40203 30.5362 3.06577 31.5515 4.40765C32.2362 5.31741 32.5768 6.43401 32.6447 7.55291C32.722 8.75075 32.5131 9.98719 31.921 11.0485C31.3933 11.9456 30.5834 12.6986 29.6036 13.1077C28.6698 13.5456 27.6149 13.621 26.5949 13.6285C25.2963 13.6331 23.9977 13.6251 22.6997 13.6262C22.6979 9.88233 22.6973 6.13786 22.6997 2.39339ZM25.6635 4.82825C25.6304 6.93527 25.6582 9.04286 25.6511 11.1505C26.2579 11.1522 26.8659 11.1747 27.4727 11.1274C28.1863 11.0531 28.8616 10.6256 29.1839 9.99353C29.6538 9.2209 29.7033 8.2783 29.6124 7.40599C29.5328 6.63278 29.2541 5.82155 28.6037 5.32893C27.779 4.69112 26.6445 4.8075 25.6635 4.82825Z" fill="white" stroke="white" stroke-width="0.09"/>
<path d="M33.3247 2.39339C35.9154 2.40031 38.5061 2.37265 41.0963 2.4078C41.1216 3.20866 41.1175 4.0101 41.1146 4.81096C39.5013 4.81557 37.8881 4.80866 36.2749 4.81327C36.2737 5.50409 36.2737 6.19433 36.2755 6.88572C37.6915 6.8886 39.1082 6.88399 40.5249 6.88687C40.5249 7.63531 40.5267 8.38432 40.5243 9.13275C39.1076 9.13563 37.691 9.13102 36.2743 9.1339C36.2737 9.80571 36.2743 10.4769 36.2749 11.1487C37.8822 11.1603 39.4895 11.1303 41.0969 11.1654C41.1234 11.9796 41.1228 12.7943 41.0992 13.6089C38.5079 13.6504 35.916 13.6176 33.3247 13.6262C33.3229 9.88176 33.3223 6.13786 33.3247 2.39339Z" fill="white" stroke="white" stroke-width="0.09"/>
<path d="M59.7095 2.39283C62.6213 2.39168 65.5326 2.39168 68.4444 2.39283C68.4456 3.19888 68.4462 4.00493 68.4444 4.81156C67.4799 4.81329 66.5166 4.81098 65.5532 4.81271C65.5497 7.75113 65.555 10.689 65.552 13.6268C64.568 13.6286 63.5852 13.6291 62.6024 13.6268C62.5983 10.689 62.6036 7.75113 62.6007 4.81329C61.6361 4.81156 60.6728 4.81386 59.7095 4.81213C59.7071 4.00551 59.7071 3.19946 59.7095 2.39341V2.39283Z" fill="white" stroke="white" stroke-width="0.09"/>
<path d="M69.1539 2.39281C70.1367 2.3905 71.1195 2.3905 72.1029 2.39281C72.1077 3.81304 72.1012 5.23386 72.1059 6.6541C73.4429 6.65698 74.7798 6.6564 76.118 6.6541C76.1215 5.23386 76.1151 3.81305 76.1198 2.39223C77.102 2.38993 78.0854 2.38993 79.0688 2.39223C79.0706 6.1367 79.0706 9.8806 79.0688 13.6251C78.0854 13.628 77.1026 13.628 76.1204 13.6251C76.1074 12.1144 76.1381 10.6037 76.105 9.09356C74.7781 9.0613 73.4505 9.06418 72.1242 9.09068C72.0823 10.6014 72.1153 12.1132 72.1035 13.6251C71.126 13.6251 70.1491 13.6401 69.1722 13.613C69.1285 9.87253 69.1645 6.13209 69.1539 2.39166V2.39281Z" fill="white" stroke="white" stroke-width="0.09"/>
<path d="M79.8976 2.3934C80.8798 2.39052 81.8632 2.39052 82.8466 2.3934C82.8596 5.3249 82.8271 8.25699 82.8619 11.1891C84.3518 11.2283 85.8428 11.1977 87.3339 11.2087C87.3356 12.009 87.3398 12.8087 87.3179 13.609C84.8447 13.6504 82.3708 13.6182 79.8976 13.6262C79.8952 9.88176 79.8952 6.13787 79.8976 2.3934Z" fill="white" stroke="white" stroke-width="0.09"/>
<path d="M99.3177 2.39395C100.334 2.38992 101.35 2.38646 102.366 2.40029C103.626 4.44048 104.875 6.487 106.148 8.5197C106.184 6.47779 106.153 4.43529 106.165 2.3928C107.108 2.39107 108.052 2.3905 108.996 2.3928C108.997 6.13727 108.998 9.88175 108.996 13.6262C108.034 13.6285 107.073 13.6308 106.112 13.6251C104.803 11.4841 103.506 9.33555 102.16 7.21642C102.135 9.35283 102.158 11.4898 102.149 13.6268C101.204 13.6285 100.26 13.6291 99.3171 13.6268C99.3159 9.88232 99.3153 6.13843 99.3177 2.39395Z" fill="white" stroke="white" stroke-width="0.09"/>
</g>
<defs>
<clipPath id="clip0_2340_3787">
<rect width="109" height="16" fill="white"/>
</clipPath>
</defs>
</svg>
