<svg width="42" height="30" viewBox="0 0 42 30" fill="none" xmlns="http://www.w3.org/2000/svg">
<path fill-rule="evenodd" clip-rule="evenodd" d="M34.9998 8.21663L28.7735 11.7254C28.2811 11.9772 27.7568 11.9095 27.4056 11.6035C26.8632 10.9701 26.6039 10.0686 26.3914 9.33752C26.3914 9.33752 27.167 9.13432 27.7829 8.82304C28.8676 8.23829 34.9996 5.00024 34.9996 5.00024V8.21663H34.9998Z" fill="white"/>
<path fill-rule="evenodd" clip-rule="evenodd" d="M20.791 10.9944L18.3491 16.3063C18.0739 16.9012 17.7831 17.8414 17.0519 18.2801C15.5662 19.3521 11.9103 19.9125 11.9103 19.9125L11.6569 19.9473C11.6569 19.9473 16.2951 10.9173 18.5357 6.7019H23.4902L31.4472 24.9188H31.3677H26.6272C25.7723 24.9188 25.8311 24.1861 24.9291 21.8375C24.7406 21.3015 20.791 10.9944 20.791 10.9944Z" fill="white"/>
<path fill-rule="evenodd" clip-rule="evenodd" d="M14.8817 7.48571C15.1647 8.33843 15.4005 9.21578 15.5421 10.0929C10.896 10.1904 7.00453 12.6513 4.0564 16.2333C3.24852 17.3327 2.28774 18.6212 2.97149 20.0833C3.95632 22.0996 7.87715 21.7036 10.4007 21.3503C13.0068 20.8509 14.9524 20.2782 17.1223 19.3522C17.7355 19.1085 18.9382 18.6212 18.9382 18.6212L20.0704 18.0608L22.3348 16.8669L22.9478 16.5501L26.903 14.3633L34.9995 9.76401V13.821L28.5136 17.8415L24.3157 20.2294C24.3157 20.2294 18.2779 23.2264 15.0706 24.201C14.5841 24.3537 14.3924 24.4142 13.8441 24.5422C10.7546 25.1754 7.12249 25.6631 4.24527 24.2498C2.71233 23.5188 1.39148 21.993 0.713281 20.4487C0.430492 19.8155 0.285809 19.1573 0.167843 18.4751C0.167843 18.2313 0.123657 17.8812 0.123657 17.6708C0.123657 14.1499 2.71213 11.4818 5.16475 9.50816C5.68347 9.0939 6.55917 8.50893 6.90403 8.31719C7.28731 8.10401 7.93592 7.83287 8.52555 7.54049C9.6752 7.02283 11.0756 6.52003 12.4523 6.41344C13.4487 6.36779 14.5042 6.46227 14.8817 7.48571Z" fill="white"/>
<path fill-rule="evenodd" clip-rule="evenodd" d="M32.4758 27.1008V30H0V27.1008H32.4758Z" fill="white"/>
</svg>
