<svg width="32" height="32" viewBox="0 0 32 32" fill="none" xmlns="http://www.w3.org/2000/svg">
<path d="M16.6412 18.4609C16.6412 18.8346 16.8913 19.1624 17.2515 19.2617L19.9781 20.0107L22.6519 29.7666C22.7651 30.1808 22.5435 30.6133 22.1412 30.7636L20.69 31.3046C20.2303 31.4758 19.7229 31.2134 19.5972 30.7392L16.8013 20.1718C16.7049 19.8076 16.3754 19.5537 15.9986 19.5537H15.3072C14.9304 19.5537 14.6008 19.8075 14.5045 20.1718L11.7076 30.7392C11.5818 31.2134 11.0746 31.4761 10.6148 31.3046L9.16461 30.7636C8.76209 30.6134 8.54057 30.181 8.65387 29.7666L11.3267 20.0107L14.0533 19.2617C14.4138 19.1626 14.6636 18.8347 14.6636 18.4609V16.6689H16.6412V18.4609ZM0.593321 9.17964C0.743355 8.77618 1.17727 8.55379 1.59234 8.66792L11.3267 11.3447L12.0757 14.0771C12.1747 14.4377 12.5026 14.6874 12.8765 14.6875H14.6636V16.6689H12.8765C12.5024 16.6689 12.1746 16.9194 12.0757 17.2802L11.3267 20.0107L1.59234 22.6884C1.17721 22.8026 0.743295 22.5803 0.593321 22.1767L0.0523052 20.7216C-0.11812 20.2623 0.144132 19.7556 0.617735 19.6298L11.1666 16.8291C11.5305 16.7324 11.7847 16.4029 11.7847 16.0263V15.33C11.7845 14.9537 11.5304 14.6249 11.1666 14.5283L0.617735 11.7265C0.144076 11.6006 -0.118425 11.0942 0.0523052 10.6347L0.593321 9.17964ZM29.7134 8.66792C30.1285 8.55386 30.5625 8.77612 30.7125 9.17964L31.2525 10.6347C31.4233 11.0942 31.1608 11.6007 30.6871 11.7265L20.1382 14.5283C19.7745 14.6249 19.5213 14.9537 19.5211 15.33V16.0263C19.5211 16.4029 19.7743 16.7324 20.1382 16.8291L30.6871 19.6298C31.1608 19.7556 31.4231 20.2622 31.2525 20.7216L30.7125 22.1767C30.5625 22.5803 30.1286 22.8026 29.7134 22.6884L19.9781 20.0107L19.23 17.2802C19.1312 16.9195 18.8032 16.669 18.4293 16.6689H16.6412V14.6875H18.4293C18.8031 14.6873 19.1311 14.4377 19.23 14.0771L19.9781 11.3447L29.7134 8.66792ZM19.5972 0.61812C19.7228 0.143696 20.2302 -0.118604 20.69 0.0526905L22.1412 0.59273C22.5438 0.743024 22.7654 1.17629 22.6519 1.59078L19.9781 11.3447L17.2515 12.0947C16.8913 12.1939 16.6413 12.5219 16.6412 12.8955V14.6875H14.6636V12.8955C14.6635 12.5218 14.4136 12.1938 14.0533 12.0947L11.3267 11.3447L8.65387 1.59078C8.54027 1.17619 8.76184 0.742948 9.16461 0.59273L10.6148 0.0526905C11.0747 -0.118807 11.582 0.143626 11.7076 0.61812L14.5045 11.1855C14.6009 11.5497 14.9304 11.8037 15.3072 11.8037H15.9986C16.3754 11.8036 16.7049 11.5497 16.8013 11.1855L19.5972 0.61812Z" fill="#87DFFF"/>
</svg>
