<svg width="16" height="16" viewBox="0 0 16 16" fill="none" xmlns="http://www.w3.org/2000/svg">
<path d="M10 10.6667L11.6907 5.78133C11.7369 5.64767 11.8236 5.53175 11.9388 5.44969C12.054 5.36764 12.1919 5.32355 12.3333 5.32355C12.4748 5.32355 12.6127 5.36764 12.7279 5.44969C12.843 5.53175 12.9298 5.64767 12.976 5.78133L14.6667 10.6667" stroke="white" stroke-linecap="round" stroke-linejoin="round"/>
<path d="M10.4646 9.33333H14.2019" stroke="white" stroke-linecap="round" stroke-linejoin="round"/>
<path d="M1.33325 10.6667L4.02592 4.20667C4.05124 4.14594 4.09396 4.09406 4.14871 4.05757C4.20346 4.02107 4.26779 4.0016 4.33359 4.0016C4.39938 4.0016 4.46371 4.02107 4.51846 4.05757C4.57321 4.09406 4.61593 4.14594 4.64125 4.20667L7.33325 10.6667" stroke="white" stroke-linecap="round" stroke-linejoin="round"/>
<path d="M2.20264 8.66667H6.46397" stroke="white" stroke-linecap="round" stroke-linejoin="round"/>
</svg>
