<svg width="16" height="16" viewBox="0 0 16 16" fill="none" xmlns="http://www.w3.org/2000/svg">
<path d="M4 8.00001H10C10.7072 8.00001 11.3855 8.28096 11.8856 8.78105C12.3857 9.28115 12.6667 9.95943 12.6667 10.6667C12.6667 11.3739 12.3857 12.0522 11.8856 12.5523C11.3855 13.0524 10.7072 13.3333 10 13.3333H4.66667C4.48986 13.3333 4.32029 13.2631 4.19526 13.1381C4.07024 13.0131 4 12.8435 4 12.6667V3.33334C4 3.15653 4.07024 2.98696 4.19526 2.86193C4.32029 2.73691 4.48986 2.66667 4.66667 2.66667H9.33333C10.0406 2.66667 10.7189 2.94762 11.219 3.44772C11.719 3.94782 12 4.62609 12 5.33334C12 6.04058 11.719 6.71886 11.219 7.21896C10.7189 7.71905 10.0406 8.00001 9.33333 8.00001" stroke="white" stroke-linecap="round" stroke-linejoin="round"/>
</svg>
