<svg width="16" height="16" viewBox="0 0 16 16" fill="none" xmlns="http://www.w3.org/2000/svg">
<path d="M9.99992 9.33334L13.3333 6L9.99992 2.66667" stroke="white" stroke-linecap="round" stroke-linejoin="round"/>
<path d="M13.3333 6H6.33325C5.85174 6 5.37494 6.09484 4.93008 6.27911C4.48522 6.46338 4.08101 6.73346 3.74053 7.07394C3.40005 7.41442 3.12996 7.81863 2.94569 8.26349C2.76143 8.70835 2.66659 9.18515 2.66659 9.66667C2.66659 10.1482 2.76143 10.625 2.94569 11.0698C3.12996 11.5147 3.40005 11.9189 3.74053 12.2594C4.08101 12.5999 4.48522 12.87 4.93008 13.0542C5.37494 13.2385 5.85174 13.3333 6.33325 13.3333H8.66659" stroke="white" stroke-linecap="round" stroke-linejoin="round"/>
</svg>
