<svg width="16" height="16" viewBox="0 0 16 16" fill="none" xmlns="http://www.w3.org/2000/svg">
<path d="M8.49826 9.66748C8.49826 9.69739 8.51828 9.72361 8.54716 9.73153L10.1798 10.1797L11.6119 15.3963C11.621 15.4294 11.6032 15.4641 11.571 15.4761L10.1748 15.9958C10.138 16.0095 10.0973 15.9885 10.0873 15.9506L8.50968 9.99868C8.50196 9.96955 8.47554 9.94925 8.44536 9.94923H7.55504C7.52486 9.94925 7.49844 9.96955 7.49072 9.99868L5.91313 15.9506C5.90307 15.9885 5.86242 16.0095 5.82557 15.9958L4.42944 15.4761C4.39716 15.4641 4.37941 15.4294 4.38851 15.3963L5.82048 10.1796L7.45284 9.73153C7.48171 9.7236 7.50175 9.69738 7.50175 9.66748V8.49838H8.49826V9.66748ZM0.524004 4.42931C0.536023 4.39704 0.57072 4.37926 0.603975 4.38838L5.82048 5.82032L6.26861 7.45278C6.27654 7.48164 6.30288 7.50168 6.33286 7.50168H7.50175V8.49838H6.33286C6.30288 8.49838 6.27654 8.51842 6.26861 8.54728L5.82048 10.1796L0.603975 11.6116C0.570724 11.6207 0.536033 11.603 0.524004 11.5708L0.0041924 10.1744C-0.00948906 10.1377 0.011537 10.0972 0.0494989 10.0871L6.00139 8.50948C6.03055 8.50174 6.05085 8.47539 6.05085 8.44527V7.55479C6.05085 7.52468 6.03055 7.49832 6.00139 7.49059L0.0494989 5.91296C0.0115432 5.9029 -0.00947542 5.86238 0.0041924 5.82563L0.524004 4.42931ZM15.396 4.38838C15.4292 4.37925 15.464 4.39703 15.476 4.42931L15.9958 5.82563C16.0095 5.86238 15.9885 5.9029 15.9505 5.91296L9.99861 7.49059C9.96945 7.49832 9.94908 7.52467 9.94908 7.55479V8.44527C9.94908 8.47539 9.96945 8.50175 9.99861 8.50948L15.9505 10.0871C15.9885 10.0972 16.0095 10.1377 15.9958 10.1744L15.476 11.5708C15.464 11.603 15.4292 11.6207 15.396 11.6116L10.1798 10.1797L9.73178 8.54728C9.72386 8.51842 9.69752 8.49838 9.66754 8.49838H8.49826V7.50168H9.66754C9.69752 7.50168 9.72386 7.48164 9.73178 7.45278L10.1799 5.82017L15.396 4.38838ZM10.0873 0.0495053C10.0973 0.0115559 10.138 -0.00950436 10.1748 0.00420045L11.571 0.523956C11.6032 0.53597 11.621 0.570554 11.6119 0.603708L10.1799 5.82017L8.54716 6.26845C8.51828 6.27638 8.49826 6.3026 8.49826 6.3325V7.50168H7.50175V6.3325C7.50174 6.30261 7.48171 6.27638 7.45284 6.26845L5.82048 5.82032L4.38851 0.603708C4.37942 0.570553 4.39717 0.53597 4.42944 0.523956L5.82557 0.00420045C5.86241 -0.00950305 5.90307 0.0115565 5.91313 0.0495053L7.49072 6.00139C7.49844 6.0305 7.52486 6.05081 7.55504 6.05083H8.44536C8.47553 6.05081 8.50195 6.0305 8.50968 6.00139L10.0873 0.0495053Z" fill="white"/>
</svg>
