<svg width="20" height="20" viewBox="0 0 20 20" fill="none" xmlns="http://www.w3.org/2000/svg">
<path d="M10 15.8333V18.3333" stroke="white" stroke-width="1.5" stroke-linecap="round" stroke-linejoin="round"/>
<path d="M15.8333 8.33333V9.99999C15.8333 11.5471 15.2187 13.0308 14.1247 14.1248C13.0308 15.2187 11.5471 15.8333 9.99996 15.8333C8.45286 15.8333 6.96913 15.2187 5.87517 14.1248C4.78121 13.0308 4.16663 11.5471 4.16663 9.99999V8.33333" stroke="white" stroke-width="1.5" stroke-linecap="round" stroke-linejoin="round"/>
<path d="M12.5 4.16667C12.5 2.78596 11.3807 1.66667 10 1.66667C8.61929 1.66667 7.5 2.78596 7.5 4.16667V10C7.5 11.3807 8.61929 12.5 10 12.5C11.3807 12.5 12.5 11.3807 12.5 10V4.16667Z" stroke="white" stroke-width="1.5" stroke-linecap="round" stroke-linejoin="round"/>
</svg>
