<svg width="32" height="32" viewBox="0 0 32 32" fill="none" xmlns="http://www.w3.org/2000/svg">
<rect width="32" height="32" rx="16" fill="#87DFFF"/>
<path d="M4.576 21.5L6.576 10.604H8L10.992 18.556H11.04L14.032 10.604H15.456L17.456 21.5H15.776L14.896 16.316C14.768 15.5693 14.6613 14.8333 14.576 14.108C14.4907 13.372 14.4373 12.636 14.416 11.9H14.816C14.624 12.7853 14.4213 13.564 14.208 14.236C14.0053 14.908 13.7707 15.6013 13.504 16.316L11.632 21.324H10.4L8.528 16.316C8.26133 15.5907 8.02133 14.8973 7.808 14.236C7.60533 13.564 7.408 12.7853 7.216 11.9H7.616C7.59467 12.636 7.54133 13.372 7.456 14.108C7.37067 14.8333 7.264 15.5693 7.136 16.316L6.256 21.5H4.576ZM19.0713 21.5V10.604H20.6713V21.5H19.0713ZM25.2473 21.5L20.0793 16.156V15.98L25.3113 10.604H27.3113L21.5353 16.54L21.6953 15.596L27.4073 21.5H25.2473Z" fill="#032134"/>
</svg>
