<svg width="16" height="16" viewBox="0 0 16 16" fill="none" xmlns="http://www.w3.org/2000/svg">
<g clip-path="url(#clip0_2945_149)">
<path d="M8.93317 1.33337H3.99984C3.64622 1.33337 3.30708 1.47385 3.05703 1.7239C2.80698 1.97395 2.6665 2.31309 2.6665 2.66671V13.3334C2.6665 13.687 2.80698 14.0261 3.05703 14.2762C3.30708 14.5262 3.64622 14.6667 3.99984 14.6667H11.9998C12.3535 14.6667 12.6926 14.5262 12.9426 14.2762C13.1927 14.0261 13.3332 13.687 13.3332 13.3334V8.40004" stroke="white" stroke-width="1.5" stroke-linecap="round" stroke-linejoin="round"/>
<path d="M1.3335 4H4.00016" stroke="white" stroke-width="1.5" stroke-linecap="round" stroke-linejoin="round"/>
<path d="M1.3335 6.66663H4.00016" stroke="white" stroke-width="1.5" stroke-linecap="round" stroke-linejoin="round"/>
<path d="M1.3335 9.33337H4.00016" stroke="white" stroke-width="1.5" stroke-linecap="round" stroke-linejoin="round"/>
<path d="M1.3335 12H4.00016" stroke="white" stroke-width="1.5" stroke-linecap="round" stroke-linejoin="round"/>
<path d="M14.2518 3.75068C14.5174 3.48511 14.6666 3.12492 14.6666 2.74935C14.6666 2.37378 14.5174 2.01359 14.2518 1.74802C13.9863 1.48245 13.6261 1.33325 13.2505 1.33325C12.8749 1.33325 12.5147 1.48245 12.2492 1.74802L8.90916 5.08935C8.75065 5.24777 8.63464 5.44357 8.57182 5.65868L8.01382 7.57202C7.99709 7.62938 7.99609 7.69019 8.01092 7.74808C8.02575 7.80596 8.05587 7.8588 8.09812 7.90105C8.14037 7.94331 8.19321 7.97342 8.25109 7.98826C8.30898 8.00309 8.36979 8.00208 8.42715 7.98535L10.3405 7.42735C10.5556 7.36454 10.7514 7.24852 10.9098 7.09002L14.2518 3.75068Z" stroke="white" stroke-width="1.5" stroke-linecap="round" stroke-linejoin="round"/>
</g>
<defs>
<clipPath id="clip0_2945_149">
<rect width="16" height="16" fill="white"/>
</clipPath>
</defs>
</svg>
