<svg width="16" height="16" viewBox="0 0 16 16" fill="none" xmlns="http://www.w3.org/2000/svg">
<g clip-path="url(#clip0_2819_1044)">
<path d="M11.9999 14.5C11.9999 13.0855 11.438 11.7289 10.4378 10.7287C9.43763 9.72853 8.08107 9.16663 6.66659 9.16663C5.2521 9.16663 3.89554 9.72853 2.89535 10.7287C1.89516 11.7289 1.33325 13.0855 1.33325 14.5" stroke="white" stroke-width="1.5" stroke-linecap="round" stroke-linejoin="round"/>
<path d="M6.66658 9.16667C8.50753 9.16667 9.99992 7.67428 9.99992 5.83333C9.99992 3.99238 8.50753 2.5 6.66658 2.5C4.82564 2.5 3.33325 3.99238 3.33325 5.83333C3.33325 7.67428 4.82564 9.16667 6.66658 9.16667Z" stroke="white" stroke-width="1.5" stroke-linecap="round" stroke-linejoin="round"/>
<path d="M14.6666 13.8333C14.6666 11.5867 13.3333 9.50001 12 8.50001C12.4382 8.17119 12.7887 7.7394 13.0203 7.24285C13.252 6.74631 13.3576 6.20032 13.328 5.65321C13.2983 5.1061 13.1342 4.57473 12.8503 4.10614C12.5663 3.63755 12.1712 3.24618 11.7 2.96667" stroke="white" stroke-width="1.5" stroke-linecap="round" stroke-linejoin="round"/>
</g>
<defs>
<clipPath id="clip0_2819_1044">
<rect width="16" height="16" fill="white"/>
</clipPath>
</defs>
</svg>
