<svg width="16" height="16" viewBox="0 0 16 16" fill="none" xmlns="http://www.w3.org/2000/svg">
<g clip-path="url(#clip0_2685_5984)">
<path d="M13.6062 1.87085C14.943 2.63815 15.3974 4.34389 14.621 5.68073L10.4038 12.9424C9.62748 14.2792 7.91437 14.7409 6.57751 13.9736C5.24064 13.2063 4.78627 11.5006 5.56263 10.1638L9.77982 2.90209C10.5562 1.56525 12.2693 1.10355 13.6062 1.87085Z" stroke="#87DFFF" stroke-width="1.5"/>
<path d="M2.39404 1.90707C3.72712 1.13743 5.43171 1.59417 6.20137 2.92722L10.3821 10.1683C11.1517 11.5014 10.695 13.2059 9.36193 13.9756C8.02885 14.7452 6.32425 14.2885 5.5546 12.9554L1.37387 5.71431C0.604222 4.38127 1.06097 2.6767 2.39404 1.90707Z" stroke="#87DFFF" stroke-width="1.5"/>
</g>
<defs>
<clipPath id="clip0_2685_5984">
<rect width="16" height="16" fill="white"/>
</clipPath>
</defs>
</svg>
