<svg width="20" height="20" viewBox="0 0 20 20" fill="none" xmlns="http://www.w3.org/2000/svg">
<path d="M10 1.60938C12.2246 1.61186 14.3577 2.49633 15.9307 4.06934C17.5037 5.64235 18.3881 7.77543 18.3906 10C18.3906 11.6594 17.8984 13.2814 16.9766 14.6611C16.0546 16.041 14.7441 17.1169 13.2109 17.752C11.6778 18.387 9.99083 18.5532 8.36328 18.2295C6.73566 17.9057 5.24083 17.1061 4.06738 15.9326C2.89393 14.7592 2.09426 13.2643 1.77051 11.6367C1.44681 10.0092 1.61302 8.32217 2.24805 6.78906C2.88311 5.25588 3.95904 3.94541 5.33887 3.02344C6.63242 2.1592 8.13887 1.67265 9.68945 1.61523L10 1.60938ZM12.5293 3.89355C11.3217 3.39338 9.9929 3.26265 8.71094 3.51758C7.42884 3.7726 6.25051 4.40183 5.32617 5.32617C4.40184 6.25051 3.7726 7.42884 3.51758 8.71094C3.26265 9.9929 3.39338 11.3217 3.89355 12.5293C4.39379 13.737 5.24127 14.7689 6.32812 15.4951C7.34698 16.1759 8.53355 16.5592 9.75488 16.6045L10 16.6094C11.7523 16.6075 13.4328 15.911 14.6719 14.6719C15.911 13.4328 16.6075 11.7523 16.6094 10C16.6094 8.69279 16.2214 7.41503 15.4951 6.32812C14.7689 5.24127 13.737 4.39379 12.5293 3.89355ZM13.2461 10.9766C13.3634 10.9915 13.4767 11.0297 13.5791 11.0889C13.6815 11.148 13.7712 11.2271 13.8428 11.3213C13.9143 11.4155 13.9665 11.5231 13.9961 11.6377C14.0256 11.7521 14.0317 11.8713 14.0146 11.9883C13.9976 12.1053 13.9575 12.218 13.8965 12.3193V12.3203C13.045 13.7957 11.6229 14.6406 10 14.6406C8.37747 14.6406 6.9584 13.7969 6.10449 12.3213C5.99148 12.1171 5.96295 11.8763 6.02539 11.6514C6.08786 11.4265 6.23641 11.2349 6.43848 11.1182C6.64051 11.0016 6.8806 10.9691 7.10645 11.0273C7.3321 11.0857 7.52612 11.2301 7.64648 11.4297C7.95382 11.9613 8.67066 12.8594 10 12.8594C11.3294 12.8594 12.0462 11.9605 12.3535 11.4297L12.3545 11.4287C12.4118 11.3253 12.4892 11.2344 12.582 11.1611C12.6749 11.0879 12.7815 11.0336 12.8955 11.002C13.0095 10.9703 13.1288 10.9617 13.2461 10.9766ZM7.42188 7.25781C7.65526 7.30424 7.86983 7.41866 8.03809 7.58691C8.20635 7.75517 8.32076 7.96974 8.36719 8.20312C8.41352 8.43632 8.38975 8.67779 8.29883 8.89746C8.20777 9.1173 8.05332 9.3053 7.85547 9.4375C7.65765 9.56964 7.4254 9.64062 7.1875 9.64062C6.86841 9.64062 6.56254 9.51371 6.33691 9.28809C6.11129 9.06246 5.98438 8.75659 5.98438 8.4375C5.98438 8.1996 6.05536 7.96735 6.1875 7.76953C6.3197 7.57168 6.5077 7.41723 6.72754 7.32617C6.94721 7.23525 7.18869 7.21148 7.42188 7.25781ZM12.8125 7.23438C13.1316 7.23438 13.4375 7.36129 13.6631 7.58691C13.8887 7.81254 14.0156 8.11841 14.0156 8.4375C14.0156 8.6754 13.9446 8.90765 13.8125 9.10547C13.6803 9.30332 13.4923 9.45777 13.2725 9.54883C13.0528 9.63975 12.8113 9.66352 12.5781 9.61719C12.3447 9.57077 12.1302 9.45635 11.9619 9.28809C11.7937 9.11983 11.6792 8.90526 11.6328 8.67188C11.5865 8.43869 11.6103 8.19721 11.7012 7.97754C11.7922 7.7577 11.9467 7.5697 12.1445 7.4375C12.3424 7.30536 12.5746 7.23438 12.8125 7.23438Z" fill="white" stroke="white" stroke-width="0.09375"/>
</svg>
