<svg width="32" height="32" viewBox="0 0 32 32" fill="none" xmlns="http://www.w3.org/2000/svg">
<rect width="32" height="32" rx="16" fill="#87DFFF"/>
<path d="M11.72 21.74C11.1547 21.74 10.6053 21.6547 10.072 21.484C9.54933 21.3133 9.06933 21.036 8.632 20.652C8.19467 20.2573 7.82667 19.724 7.528 19.052L8.856 18.3C9.22933 18.972 9.64 19.4573 10.088 19.756C10.536 20.0547 11.096 20.204 11.768 20.204C12.4187 20.204 12.9093 20.06 13.24 19.772C13.5813 19.484 13.752 19.0893 13.752 18.588C13.752 18.2893 13.6773 18.028 13.528 17.804C13.3893 17.58 13.1387 17.372 12.776 17.18C12.4133 16.988 11.9013 16.812 11.24 16.652C10.408 16.4387 9.75733 16.1773 9.288 15.868C8.82933 15.548 8.50933 15.1853 8.328 14.78C8.14667 14.364 8.056 13.916 8.056 13.436C8.056 12.8387 8.19467 12.3213 8.472 11.884C8.74933 11.436 9.14933 11.0893 9.672 10.844C10.1947 10.588 10.8133 10.46 11.528 10.46C12.3813 10.46 13.0853 10.6253 13.64 10.956C14.1947 11.276 14.664 11.7187 15.048 12.284L13.704 13.148C13.3733 12.7427 13.0267 12.4547 12.664 12.284C12.312 12.1027 11.9333 12.012 11.528 12.012C10.9093 12.012 10.4347 12.1347 10.104 12.38C9.784 12.6253 9.624 12.9773 9.624 13.436C9.624 13.8307 9.77333 14.172 10.072 14.46C10.3813 14.748 10.9787 14.9987 11.864 15.212C12.76 15.436 13.4587 15.7027 13.96 16.012C14.472 16.3107 14.8293 16.6733 15.032 17.1C15.2453 17.516 15.352 18.0173 15.352 18.604C15.352 19.1907 15.2027 19.7187 14.904 20.188C14.6053 20.6573 14.184 21.036 13.64 21.324C13.096 21.6013 12.456 21.74 11.72 21.74ZM18.8886 21.5V11.804H20.4886V21.5H18.8886ZM15.4806 12.108V10.604H24.0566V12.108H15.4806Z" fill="#032134"/>
</svg>
